<mxfile host="app.diagrams.net" modified="2024-04-19T22:35:59.705Z" agent="Mozilla/5.0 (Macintosh; Intel Mac OS X 10_15_7) AppleWebKit/537.36 (KHTML, like Gecko) Chrome/123.0.0.0 Safari/537.36" etag="JbtVdSVTbC6ZItWvnTis" version="24.2.7" type="device">
  <diagram id="AIra0pvackN1RxZxVPas" name="Page-1">
    <mxGraphModel dx="1128" dy="2246" grid="1" gridSize="10" guides="1" tooltips="1" connect="1" arrows="1" fold="1" page="1" pageScale="1" pageWidth="850" pageHeight="1100" math="0" shadow="0">
      <root>
        <mxCell id="0" />
        <mxCell id="1" parent="0" />
        <mxCell id="b4ZN2M5RfPYAqQMjHC3d-15" value="done" style="edgeStyle=orthogonalEdgeStyle;rounded=0;orthogonalLoop=1;jettySize=auto;html=1;exitX=1;exitY=0.5;exitDx=0;exitDy=0;strokeColor=#010103;" parent="1" source="b4ZN2M5RfPYAqQMjHC3d-1" target="b4ZN2M5RfPYAqQMjHC3d-3" edge="1">
          <mxGeometry relative="1" as="geometry" />
        </mxCell>
        <mxCell id="b4ZN2M5RfPYAqQMjHC3d-1" value="frontend&lt;br&gt;8080" style="ellipse;whiteSpace=wrap;html=1;aspect=fixed;" parent="1" vertex="1">
          <mxGeometry x="160" y="-40" width="80" height="80" as="geometry" />
        </mxCell>
        <mxCell id="b4ZN2M5RfPYAqQMjHC3d-27" value="done" style="edgeStyle=orthogonalEdgeStyle;rounded=0;orthogonalLoop=1;jettySize=auto;html=1;exitX=1;exitY=0;exitDx=0;exitDy=0;strokeColor=#010103;" parent="1" source="b4ZN2M5RfPYAqQMjHC3d-3" target="b4ZN2M5RfPYAqQMjHC3d-8" edge="1">
          <mxGeometry relative="1" as="geometry" />
        </mxCell>
        <mxCell id="lDAgHUhBlKOp9ut9prGu-3" style="edgeStyle=orthogonalEdgeStyle;rounded=0;orthogonalLoop=1;jettySize=auto;html=1;exitX=1;exitY=1;exitDx=0;exitDy=0;entryX=0;entryY=0.5;entryDx=0;entryDy=0;" parent="1" source="b4ZN2M5RfPYAqQMjHC3d-3" target="lDAgHUhBlKOp9ut9prGu-1" edge="1">
          <mxGeometry relative="1" as="geometry" />
        </mxCell>
        <mxCell id="lDAgHUhBlKOp9ut9prGu-4" value="done" style="edgeLabel;html=1;align=center;verticalAlign=middle;resizable=0;points=[];" parent="lDAgHUhBlKOp9ut9prGu-3" vertex="1" connectable="0">
          <mxGeometry x="-0.167" y="-2" relative="1" as="geometry">
            <mxPoint x="4" as="offset" />
          </mxGeometry>
        </mxCell>
        <mxCell id="p0K_Y-Jd21dL47wSxUOo-3" style="edgeStyle=orthogonalEdgeStyle;rounded=0;orthogonalLoop=1;jettySize=auto;html=1;exitX=0;exitY=0.5;exitDx=0;exitDy=0;entryX=1;entryY=0.5;entryDx=0;entryDy=0;" edge="1" parent="1" source="b4ZN2M5RfPYAqQMjHC3d-3" target="p0K_Y-Jd21dL47wSxUOo-1">
          <mxGeometry relative="1" as="geometry" />
        </mxCell>
        <mxCell id="b4ZN2M5RfPYAqQMjHC3d-3" value="backend&lt;br&gt;8080" style="ellipse;whiteSpace=wrap;html=1;aspect=fixed;" parent="1" vertex="1">
          <mxGeometry x="345" y="45" width="80" height="80" as="geometry" />
        </mxCell>
        <mxCell id="b4ZN2M5RfPYAqQMjHC3d-8" value="patroni&lt;br&gt;8008&lt;br&gt;5432" style="ellipse;whiteSpace=wrap;html=1;aspect=fixed;" parent="1" vertex="1">
          <mxGeometry x="510" y="170" width="80" height="80" as="geometry" />
        </mxCell>
        <mxCell id="DNz0pwb5H6Iw8uUJaAUe-7" value="done" style="edgeStyle=orthogonalEdgeStyle;rounded=0;orthogonalLoop=1;jettySize=auto;html=1;entryX=0;entryY=0.5;entryDx=0;entryDy=0;strokeColor=#010103;" parent="1" source="b4ZN2M5RfPYAqQMjHC3d-10" target="b4ZN2M5RfPYAqQMjHC3d-8" edge="1">
          <mxGeometry relative="1" as="geometry">
            <Array as="points">
              <mxPoint x="450" y="210" />
              <mxPoint x="450" y="210" />
            </Array>
          </mxGeometry>
        </mxCell>
        <mxCell id="b4ZN2M5RfPYAqQMjHC3d-10" value="backup-cron" style="ellipse;whiteSpace=wrap;html=1;aspect=fixed;" parent="1" vertex="1">
          <mxGeometry x="317.5" y="170" width="75" height="75" as="geometry" />
        </mxCell>
        <mxCell id="b4ZN2M5RfPYAqQMjHC3d-13" value="minio&lt;br&gt;9000&lt;div&gt;9001&lt;/div&gt;" style="ellipse;whiteSpace=wrap;html=1;aspect=fixed;" parent="1" vertex="1">
          <mxGeometry x="160" y="257" width="80" height="80" as="geometry" />
        </mxCell>
        <mxCell id="9xZVyRgoyZn5UuLwTAI5-3" value="done" style="curved=1;endArrow=classic;html=1;exitX=1;exitY=0.5;exitDx=0;exitDy=0;entryX=1;entryY=0.5;entryDx=0;entryDy=0;strokeColor=#010103;" parent="1" source="b4ZN2M5RfPYAqQMjHC3d-8" target="b4ZN2M5RfPYAqQMjHC3d-8" edge="1">
          <mxGeometry width="50" height="50" relative="1" as="geometry">
            <mxPoint x="590" y="200" as="sourcePoint" />
            <mxPoint x="560" y="206" as="targetPoint" />
            <Array as="points">
              <mxPoint x="620" y="260" />
              <mxPoint x="640" y="200" />
              <mxPoint x="630" y="200" />
              <mxPoint x="600" y="180" />
            </Array>
          </mxGeometry>
        </mxCell>
        <mxCell id="jZ5XmgkILTjiQiPbq-w5-3" value="done" style="edgeStyle=orthogonalEdgeStyle;rounded=0;orthogonalLoop=1;jettySize=auto;html=1;entryX=1;entryY=0;entryDx=0;entryDy=0;strokeColor=#010103;" parent="1" source="jZ5XmgkILTjiQiPbq-w5-2" target="b4ZN2M5RfPYAqQMjHC3d-8" edge="1">
          <mxGeometry relative="1" as="geometry" />
        </mxCell>
        <mxCell id="jZ5XmgkILTjiQiPbq-w5-2" value="backend-mid" style="ellipse;whiteSpace=wrap;html=1;aspect=fixed;" parent="1" vertex="1">
          <mxGeometry x="630" y="-20" width="80" height="80" as="geometry" />
        </mxCell>
        <mxCell id="5H04mbbeuP7JrVoTDnXR-10" value="openshift.io/deployer-pod.type: hook-mid" style="text;html=1;strokeColor=none;fillColor=none;align=center;verticalAlign=middle;whiteSpace=wrap;rounded=0;" parent="1" vertex="1">
          <mxGeometry x="550" y="-40" width="230" height="20" as="geometry" />
        </mxCell>
        <mxCell id="gXcNkLZ_ncjaHXmeqUjd-3" value="done" style="edgeStyle=orthogonalEdgeStyle;rounded=0;orthogonalLoop=1;jettySize=auto;html=1;entryX=0.5;entryY=1;entryDx=0;entryDy=0;" parent="1" source="gXcNkLZ_ncjaHXmeqUjd-1" target="b4ZN2M5RfPYAqQMjHC3d-8" edge="1">
          <mxGeometry relative="1" as="geometry" />
        </mxCell>
        <mxCell id="gXcNkLZ_ncjaHXmeqUjd-1" value="task-queue&lt;br&gt;8080" style="ellipse;whiteSpace=wrap;html=1;aspect=fixed;" parent="1" vertex="1">
          <mxGeometry x="317.5" y="370" width="70" height="70" as="geometry" />
        </mxCell>
        <mxCell id="lDAgHUhBlKOp9ut9prGu-1" value="Clamav&lt;br&gt;3310" style="ellipse;whiteSpace=wrap;html=1;aspect=fixed;" parent="1" vertex="1">
          <mxGeometry x="650" y="73" width="80" height="80" as="geometry" />
        </mxCell>
        <mxCell id="p0K_Y-Jd21dL47wSxUOo-2" style="edgeStyle=orthogonalEdgeStyle;rounded=0;orthogonalLoop=1;jettySize=auto;html=1;" edge="1" parent="1" source="p0K_Y-Jd21dL47wSxUOo-1" target="b4ZN2M5RfPYAqQMjHC3d-13">
          <mxGeometry relative="1" as="geometry" />
        </mxCell>
        <mxCell id="p0K_Y-Jd21dL47wSxUOo-1" value="cra&lt;br&gt;8080" style="ellipse;whiteSpace=wrap;html=1;aspect=fixed;" vertex="1" parent="1">
          <mxGeometry x="160" y="110" width="80" height="80" as="geometry" />
        </mxCell>
        <mxCell id="p0K_Y-Jd21dL47wSxUOo-5" style="edgeStyle=orthogonalEdgeStyle;rounded=0;orthogonalLoop=1;jettySize=auto;html=1;entryX=1;entryY=1;entryDx=0;entryDy=0;" edge="1" parent="1" source="p0K_Y-Jd21dL47wSxUOo-4" target="b4ZN2M5RfPYAqQMjHC3d-8">
          <mxGeometry relative="1" as="geometry" />
        </mxCell>
        <mxCell id="p0K_Y-Jd21dL47wSxUOo-4" value="metabase&lt;div&gt;from 30b186&lt;/div&gt;" style="ellipse;whiteSpace=wrap;html=1;aspect=fixed;" vertex="1" parent="1">
          <mxGeometry x="740" y="280" width="80" height="80" as="geometry" />
        </mxCell>
        <mxCell id="p0K_Y-Jd21dL47wSxUOo-7" style="edgeStyle=orthogonalEdgeStyle;rounded=0;orthogonalLoop=1;jettySize=auto;html=1;exitX=1;exitY=0;exitDx=0;exitDy=0;entryX=0;entryY=1;entryDx=0;entryDy=0;" edge="1" parent="1" source="p0K_Y-Jd21dL47wSxUOo-6" target="b4ZN2M5RfPYAqQMjHC3d-8">
          <mxGeometry relative="1" as="geometry" />
        </mxCell>
        <mxCell id="p0K_Y-Jd21dL47wSxUOo-6" value="prometheus from 0ab226-tools" style="ellipse;whiteSpace=wrap;html=1;aspect=fixed;" vertex="1" parent="1">
          <mxGeometry x="375" y="280" width="75" height="75" as="geometry" />
        </mxCell>
      </root>
    </mxGraphModel>
  </diagram>
</mxfile>
